<svg width="400" height="270" viewBox="0 0 400 270" fill="none" xmlns="http://www.w3.org/2000/svg">
<g clip-path="url(#clip0)">
<rect x="2" y="150.675" width="396" height="62" rx="3" stroke="#24292E" stroke-width="4" stroke-linecap="round" stroke-linejoin="round"/>
<g clip-path="url(#clip1)">
<rect x="12" y="162.421" width="96" height="38" rx="2" fill="#24292E"/>
<path d="M85.2929 186.714C84.9024 187.104 84.9024 187.738 85.2929 188.128C85.6834 188.519 86.3166 188.519 86.7071 188.128L85.2929 186.714ZM98.7071 176.128C99.0976 175.738 99.0976 175.104 98.7071 174.714C98.3166 174.323 97.6834 174.323 97.2929 174.714L98.7071 176.128ZM97.2929 188.128C97.6834 188.519 98.3166 188.519 98.7071 188.128C99.0976 187.738 99.0976 187.104 98.7071 186.714L97.2929 188.128ZM86.7071 174.714C86.3166 174.323 85.6834 174.323 85.2929 174.714C84.9024 175.104 84.9024 175.738 85.2929 176.128L86.7071 174.714ZM86.7071 188.128L98.7071 176.128L97.2929 174.714L85.2929 186.714L86.7071 188.128ZM98.7071 186.714L86.7071 174.714L85.2929 176.128L97.2929 188.128L98.7071 186.714Z" fill="white"/>
<rect x="22" y="178.421" width="52" height="6" rx="3" fill="white"/>
</g>
<g clip-path="url(#clip2)">
<rect x="117" y="162.421" width="96" height="38" rx="2" fill="#24292E"/>
<path d="M190.293 186.714C189.902 187.104 189.902 187.738 190.293 188.128C190.683 188.519 191.317 188.519 191.707 188.128L190.293 186.714ZM203.707 176.128C204.098 175.738 204.098 175.104 203.707 174.714C203.317 174.323 202.683 174.323 202.293 174.714L203.707 176.128ZM202.293 188.128C202.683 188.519 203.317 188.519 203.707 188.128C204.098 187.738 204.098 187.104 203.707 186.714L202.293 188.128ZM191.707 174.714C191.317 174.323 190.683 174.323 190.293 174.714C189.902 175.104 189.902 175.738 190.293 176.128L191.707 174.714ZM191.707 188.128L203.707 176.128L202.293 174.714L190.293 186.714L191.707 188.128ZM203.707 186.714L191.707 174.714L190.293 176.128L202.293 188.128L203.707 186.714Z" fill="white"/>
<rect x="127" y="178.421" width="52" height="6" rx="3" fill="white"/>
</g>
<rect x="231" y="177.421" width="66" height="8" rx="4" fill="#24292E"/>
<rect x="231" y="177.421" width="86" height="8" rx="4" fill="#24292E"/>
</g>
<path d="M84.1629 62.9252H70.4949V99.1052H57.4299V62.9252H43.6949V51.5352H84.1629V62.9252ZM81.6583 88.4522C81.6583 86.0849 82.3059 84.0079 83.6013 82.2212C84.8966 80.3899 86.6833 78.9606 88.9613 77.9332C91.2839 76.9059 93.9193 76.3922 96.8673 76.3922C99.7259 76.3922 102.093 76.8389 103.969 77.7322V76.6602C103.969 75.0076 103.478 73.7792 102.495 72.9752C101.557 72.1712 100.016 71.7692 97.8723 71.7692C95.9069 71.7692 94.0533 72.1042 92.3113 72.7742C90.6139 73.3996 88.8273 74.3376 86.9513 75.5882L83.2663 67.6822C87.9116 64.6896 93.2046 63.1932 99.1453 63.1932C104.729 63.1932 109.039 64.4662 112.076 67.0122C115.158 69.5136 116.699 73.2432 116.699 78.2012V85.0352C116.699 86.2412 116.878 87.0899 117.235 87.5812C117.593 88.0279 118.218 88.2959 119.111 88.3852V99.1052C118.084 99.3286 117.101 99.4849 116.163 99.5742C115.27 99.7082 114.466 99.7752 113.751 99.7752C111.473 99.7752 109.731 99.3732 108.525 98.5692C107.364 97.7206 106.605 96.4922 106.247 94.8842L105.979 93.6112C102.763 97.7206 98.7656 99.7752 93.9863 99.7752C91.6636 99.7752 89.5643 99.2839 87.6883 98.3012C85.8123 97.3186 84.3383 95.9786 83.2663 94.2812C82.1943 92.5392 81.6583 90.5962 81.6583 88.4522ZM102.294 89.3232C103.411 88.5639 103.969 87.7376 103.969 86.8442V84.2312C103.255 83.9632 102.428 83.7399 101.49 83.5612C100.597 83.3826 99.7929 83.2932 99.0783 83.2932C97.5596 83.2932 96.2643 83.6729 95.1923 84.4322C94.1649 85.1916 93.6513 86.1519 93.6513 87.3132C93.6513 88.2959 94.0309 89.0999 94.7903 89.7252C95.5943 90.3506 96.5993 90.6632 97.8053 90.6632C99.4579 90.6632 100.954 90.2166 102.294 89.3232ZM137.244 99.1052C134.206 99.1052 131.526 98.3236 129.204 96.7602C126.881 95.1969 125.072 93.0752 123.777 90.3952C122.526 87.7152 121.901 84.7226 121.901 81.4172C121.901 77.8886 122.593 74.7619 123.978 72.0372C125.362 69.3126 127.283 67.1686 129.74 65.6052C132.241 63.9972 135.1 63.1932 138.316 63.1932C140.817 63.1932 143.028 63.7069 144.949 64.7342C146.914 65.7169 148.455 67.1686 149.572 69.0892V63.8632H160.627V95.8892C160.627 99.5519 159.733 102.746 157.947 105.47C156.16 108.195 153.659 110.294 150.443 111.768C147.227 113.287 143.475 114.046 139.187 114.046C135.479 114.046 132.219 113.466 129.405 112.304C126.635 111.143 124.179 109.468 122.035 107.279L128.735 100.311C130.03 101.517 131.571 102.522 133.358 103.326C135.189 104.175 137.132 104.599 139.187 104.599C140.75 104.599 142.179 104.309 143.475 103.728C144.815 103.148 145.887 102.21 146.691 100.914C147.495 99.6636 147.897 97.9886 147.897 95.8892V93.6112C146.914 95.4426 145.44 96.8272 143.475 97.7652C141.554 98.6586 139.477 99.1052 137.244 99.1052ZM141.8 89.0552C143.095 89.0552 144.212 88.7649 145.15 88.1842C146.132 87.5589 147.048 86.6432 147.897 85.4372V79.1392C147.271 77.5312 146.333 76.2582 145.083 75.3202C143.877 74.3822 142.604 73.9132 141.264 73.9132C139.477 73.9132 137.958 74.6949 136.708 76.2582C135.502 77.7769 134.899 79.6082 134.899 81.7522C134.899 83.9409 135.546 85.7052 136.842 87.0452C138.137 88.3852 139.79 89.0552 141.8 89.0552ZM183.009 99.1052V51.5352H196.074V99.1052H183.009ZM238.846 99.1052H226.116V79.2732C226.116 77.5312 225.714 76.2806 224.91 75.5212C224.151 74.7172 223.257 74.3152 222.23 74.3152C221.158 74.3152 220.019 74.7842 218.813 75.7222C217.607 76.6602 216.714 77.8662 216.133 79.3402V99.1052H203.403V63.8632H214.86V69.0892C216.111 67.1686 217.875 65.7169 220.153 64.7342C222.431 63.7069 225.089 63.1932 228.126 63.1932C230.538 63.1932 232.459 63.6176 233.888 64.4662C235.317 65.3149 236.389 66.4092 237.104 67.7492C237.819 69.0892 238.288 70.4962 238.511 71.9702C238.734 73.3996 238.846 74.7172 238.846 75.9232V99.1052ZM268.734 99.7752C263.464 99.7752 259.801 97.8099 257.746 93.8792V113.376H245.016V63.8632H256.071V69.1562C257.322 67.2356 258.863 65.7616 260.694 64.7342C262.57 63.7069 264.826 63.1932 267.461 63.1932C270.588 63.1932 273.38 63.9972 275.836 65.6052C278.293 67.1686 280.214 69.3126 281.598 72.0372C283.028 74.7619 283.742 77.8662 283.742 81.3502C283.742 84.8789 283.095 88.0279 281.799 90.7972C280.504 93.5666 278.717 95.7552 276.439 97.3632C274.206 98.9712 271.638 99.7752 268.734 99.7752ZM264.312 89.0552C266.144 89.0552 267.662 88.2959 268.868 86.7772C270.119 85.2586 270.744 83.4272 270.744 81.2832C270.744 79.0499 270.097 77.2632 268.801 75.9232C267.551 74.5832 265.876 73.9132 263.776 73.9132C261.454 73.9132 259.444 75.1192 257.746 77.5312V83.6282C258.372 85.1469 259.287 86.4422 260.493 87.5142C261.699 88.5416 262.972 89.0552 264.312 89.0552ZM288.061 87.0452V63.8632H300.791V84.1642C300.791 85.6829 301.126 86.8889 301.796 87.7822C302.511 88.6309 303.471 89.0552 304.677 89.0552C305.66 89.0552 306.665 88.8319 307.692 88.3852C308.72 87.9386 309.747 86.9559 310.774 85.4372V63.8632H323.504V85.0352C323.504 86.2412 323.683 87.0899 324.04 87.5812C324.398 88.0279 325.023 88.2959 325.916 88.3852V99.1052C323.728 99.5519 321.941 99.7752 320.556 99.7752C316.224 99.7752 313.722 98.1449 313.052 94.8842L312.784 93.6112C311.132 95.7999 309.144 97.3856 306.821 98.3682C304.543 99.3062 301.953 99.7752 299.049 99.7752C295.521 99.7752 292.796 98.6809 290.875 96.4922C288.999 94.3036 288.061 91.1546 288.061 87.0452ZM355.583 97.1622C353.796 97.9216 351.876 98.5692 349.821 99.1052C347.811 99.5966 345.823 99.8422 343.858 99.8422C341.937 99.8422 340.173 99.5296 338.565 98.9042C336.957 98.2342 335.662 97.1622 334.679 95.6882C333.741 94.1696 333.272 92.1372 333.272 89.5912V73.4442H328.917V63.8632H333.272V52.8082H346.002V63.8632H352.903V73.4442H346.002V85.1022C346.002 86.2636 346.248 87.0899 346.739 87.5812C347.23 88.0279 347.9 88.2512 348.749 88.2512C349.374 88.2512 350.089 88.1396 350.893 87.9162C351.697 87.6929 352.501 87.4249 353.305 87.1122L355.583 97.1622Z" fill="#24292E"/>
<defs>
<clipPath id="clip0">
<rect width="400" height="69.4737" fill="white" transform="translate(0 148.421)"/>
</clipPath>
<clipPath id="clip1">
<rect width="96" height="38" fill="white" transform="translate(12 162.421)"/>
</clipPath>
<clipPath id="clip2">
<rect width="96" height="38" fill="white" transform="translate(117 162.421)"/>
</clipPath>
</defs>
</svg>
